<?xml version="1.0" encoding="UTF-8"?>
<svg xmlns="http://www.w3.org/2000/svg" width="48" height="48" viewBox="0 0 48 48" role="img" aria-labelledby="title desc">
  <title id="title">Lonely Chat Emoji (Light)</title>
  <desc id="desc">Cute emoji chat bubble with a small question mark accent</desc>
  <defs>
    <filter id="shadow" x="-20%" y="-20%" width="140%" height="140%">
      <feDropShadow dx="0" dy="1" stdDeviation="1.2" flood-opacity="0.18"/>
    </filter>
  </defs>

  <!-- Bubble base -->
  <g filter="url(#shadow)">
    <circle cx="23" cy="22" r="14" fill="#FDE68A" stroke="#F59E0B" stroke-width="2"/>
    <!-- Tail -->
    <path d="M14.6 30.2 L12.5 36.5 L18.2 31.6" fill="#FDE68A" stroke="#F59E0B" stroke-width="2" stroke-linejoin="round"/>
  </g>

  <!-- Face -->
  <g>
    <!-- eyes -->
    <circle cx="18" cy="20" r="1.6" fill="#0F172A"/>
    <circle cx="28" cy="20" r="1.6" fill="#0F172A"/>
    <!-- mouth -->
    <path d="M18 25 C 20 27.5, 26 27.5, 28 25" fill="none" stroke="#EA580C" stroke-width="2" stroke-linecap="round"/>
    <!-- blush -->
    <circle cx="15.2" cy="22.8" r="1.1" fill="#FCA5A5" opacity="0.9"/>
    <circle cx="30.8" cy="22.8" r="1.1" fill="#FCA5A5" opacity="0.9"/>
  </g>

  <!-- Small question mark accent (top-right) -->
  <g transform="translate(33,10) scale(0.9)">
    <!-- halo -->
    <circle cx="0" cy="0" r="5.5" fill="#F5F3FF"/>
    <!-- question curve -->
    <path d="M-1.8 -0.8 C -1.2 -2.8, 1.6 -2.8, 2.2 -1.2 C 2.6 -0.2, 2.0 0.6, 1.2 1.2 C 0.4 1.8, 0.1 2.2, 0.1 3.0" fill="none" stroke="#8B5CF6" stroke-width="1.7" stroke-linecap="round"/>
    <!-- dot -->
    <circle cx="0.1" cy="4.4" r="0.8" fill="#8B5CF6"/>
  </g>
</svg>